<?xml version="1.0" encoding="utf-8"?>
<!-- Generator: Adobe Illustrator 24.0.1, SVG Export Plug-In . SVG Version: 6.00 Build 0)  -->
<svg version="1.1" id="Layer_1" xmlns="http://www.w3.org/2000/svg" xmlns:xlink="http://www.w3.org/1999/xlink" x="0px" y="0px"
	 viewBox="0 0 40 40" style="enable-background:new 0 0 40 40;" xml:space="preserve">
<path d="M20,40C9,40,0,31,0,20S9,0,20,0s20,9,20,20S31,40,20,40z M20,2C10.1,2,2,10.1,2,20s8.1,18,18,18s18-8.1,18-18S29.9,2,20,2z"
	/>
<path class="st0" d="M16.6,23.2l9.8-8.7c0.4-0.4-0.1-0.5-0.6-0.2l-12,7.5l-5.2-1.6c-1.2-0.3-1.2-1.1,0.2-1.7l20.4-7.7
	c1-0.4,1.8,0.2,1.5,1.7l-3.5,16c-0.2,1.1-1,1.4-1.9,0.9l-5.3-3.8l-2.5,2.4c-0.3,0.3-0.7,0.3-0.7,0L16.6,23.2z"/>
</svg>
