<?xml version="1.0" encoding="utf-8"?>
<!-- Generator: Adobe Illustrator 24.0.1, SVG Export Plug-In . SVG Version: 6.00 Build 0)  -->
<svg version="1.1" id="Layer_1" xmlns="http://www.w3.org/2000/svg" xmlns:xlink="http://www.w3.org/1999/xlink" x="0px" y="0px"
	 viewBox="0 0 40 40" style="enable-background:new 0 0 40 40;" xml:space="preserve">
<path d="M34.7,3.9c-1-0.9-5-3.8-14-3.9c0,0-10.6-0.6-15.7,4.1c-2.9,2.9-3.9,7-4,12.2s-0.2,14.9,9.1,17.6h0l0,4c0,0-0.1,1.6,1,2
	c1.3,0.4,2.1-0.8,3.3-2.2c0.7-0.7,1.6-1.8,2.3-2.6c1,0.1,2.2,0.2,3.3,0.2c3,0,6-0.4,8.8-1.1l-0.2,0.1c1.3-0.4,8.6-1.4,9.8-11.1
	C39.8,13.1,38,6.8,34.7,3.9z M35.8,22.4c-1,8.1-7,8.6-8,9c-2.4,0.6-5.1,1-7.9,1c-0.8,0-1.6,0-2.4-0.1l0.1,0c0,0-4.1,4.9-5.3,6.2
	c-0.4,0.4-0.9,0.4-0.9-0.4c0-0.5,0-6.7,0-6.7c-7.9-2.2-7.5-10.5-7.4-14.8S4.8,8.6,7.3,6.2c4.4-3.9,13.3-3.4,13.3-3.4
	c7.6,0,11.2,2.3,12,3.1C35.4,8.3,36.8,14,35.8,22.4L35.8,22.4z M24.9,16.1L24.9,16.1c0,0.3-0.2,0.5-0.5,0.5c-0.3,0-0.5-0.2-0.5-0.5
	v0c0-0.1,0-0.2,0-0.2c0-1.3-1.1-2.4-2.4-2.4c0,0-0.1,0-0.1,0h0c-0.3,0-0.5-0.2-0.5-0.5c0-0.3,0.2-0.5,0.5-0.5h0h0c0,0,0.1,0,0.1,0
	c1.9,0,3.4,1.5,3.4,3.4C24.9,16,24.9,16,24.9,16.1L24.9,16.1L24.9,16.1z M26.5,17c0.1-3.3-2-5.9-5.9-6.2c-0.3,0-0.5-0.2-0.5-0.5
	c0-0.3,0.2-0.5,0.5-0.5c0,0,0,0,0,0h0h0c3.8,0,6.8,3.1,6.8,6.8c0,0.1,0,0.3,0,0.4l0,0c0,0.3-0.2,0.5-0.5,0.5
	C26.7,17.5,26.5,17.3,26.5,17C26.5,17,26.5,17,26.5,17L26.5,17z M30.2,18L30.2,18c0,0.3-0.2,0.5-0.5,0.5c-0.3,0-0.5-0.2-0.5-0.5
	c0-6.4-4.3-9.8-9.4-9.9c-0.3,0-0.5-0.2-0.5-0.5s0.2-0.5,0.5-0.5C25.5,7.2,30.1,11.2,30.2,18L30.2,18z M29.3,25.7L29.3,25.7
	c-0.8,1.5-2.4,3.1-4,2.6l0,0c-3.1-1.1-5.7-2.6-8.1-4.5l0.1,0c-1.2-1-2.3-2.1-3.3-3.3l0,0c-0.8-1.1-1.6-2.3-2.3-3.5l-0.1-0.1
	c-0.8-1.2-1.4-2.7-2-4.2l0-0.2c-0.5-1.6,1.1-3.2,2.6-4h0c0.2-0.1,0.5-0.2,0.8-0.2c0.4,0,0.8,0.2,1.1,0.5l0,0c0,0,1,1.2,1.4,1.7
	c0.4,0.5,0.9,1.4,1.2,1.9c0.2,0.2,0.2,0.5,0.2,0.9c0,0.5-0.2,0.9-0.5,1.2l0,0l-0.9,0.7c-0.3,0.2-0.4,0.6-0.4,1c0,0,0,0.1,0,0.1v0
	c1,3.2,3.4,5.6,6.5,6.6l0.1,0c0,0,0.1,0,0.1,0c0.4,0,0.7-0.2,1-0.4l0.7-0.9c0.3-0.3,0.7-0.5,1.2-0.5c0.3,0,0.6,0.1,0.9,0.3l0,0
	c1.4,0.8,2.5,1.6,3.6,2.6l0,0c0.3,0.3,0.5,0.6,0.5,1.1C29.5,25.2,29.4,25.5,29.3,25.7L29.3,25.7L29.3,25.7z"/>
</svg>
