<?xml version="1.0" encoding="utf-8"?>
<!-- Generator: Adobe Illustrator 24.0.1, SVG Export Plug-In . SVG Version: 6.00 Build 0)  -->
<svg version="1.1" id="Layer_1" xmlns="http://www.w3.org/2000/svg" xmlns:xlink="http://www.w3.org/1999/xlink" x="0px" y="0px"
	 viewBox="0 0 40 40" style="enable-background:new 0 0 40 40;" xml:space="preserve">
<g>
	<path  d="M40,20C40,8.9,31.1,0,20,0S0,8.9,0,20s8.9,20,20,20S40,31.1,40,20z M3.3,20
		c0-9.2,7.5-16.7,16.7-16.7S36.7,10.8,36.7,20S29.2,36.7,20,36.7S3.3,29.2,3.3,20z"/>
	<path d="M21.2,31.7l6.1-6.1c0.7-0.7,0.7-1.7,0-2.4c-0.7-0.7-1.7-0.7-2.4,0l-4.9,5l-4.9-4.9
		c-0.7-0.7-1.7-0.7-2.4,0c-0.5,0.4-0.9,1.4,0,2.3l6.1,6.1C19.5,32.4,20.5,32.4,21.2,31.7L21.2,31.7z"/>
	<path d="M27.3,16.8c0.7-0.7,0.7-1.7,0-2.4l-6.1-6.1c-0.7-0.7-1.7-0.7-2.4,0l-6.1,6.1
		c-0.9,0.9-0.5,1.9,0,2.3c0.7,0.7,1.7,0.7,2.4,0l4.9-4.9l4.9,5C25.6,17.4,26.6,17.4,27.3,16.8L27.3,16.8z"/>
</g>
</svg>
