<?xml version="1.0" encoding="utf-8"?>
<!-- Generator: Adobe Illustrator 24.0.1, SVG Export Plug-In . SVG Version: 6.00 Build 0)  -->
<svg version="1.1" id="Layer_1" xmlns="http://www.w3.org/2000/svg" xmlns:xlink="http://www.w3.org/1999/xlink" x="0px" y="0px"
	 viewBox="0 0 75 75" style="enable-background:new 0 0 75 75;" xml:space="preserve">
<path d="M59.4,6.3c5.2,0,9.4,4.2,9.4,9.4v43.8c0,5.2-4.2,9.4-9.4,9.4H15.6c-5.2,0-9.4-4.2-9.4-9.4V15.6c0-5.2,4.2-9.4,9.4-9.4H59.4z
	 M59.4,0H15.6C7,0,0,7,0,15.6v43.8C0,68,7,75,15.6,75h43.8C68,75,75,68,75,59.4V15.6C75,7,68,0,59.4,0z M37.5,18.8
	c-10.4,0-18.8,8.4-18.8,18.8s8.4,18.8,18.8,18.8s18.8-8.4,18.8-18.8S47.9,18.8,37.5,18.8z M37.5,50C30.6,50,25,44.4,25,37.5
	S30.6,25,37.5,25C44.4,25,50,30.6,50,37.5S44.4,50,37.5,50z M59.4,18.8c-1.7,0-3.1-1.4-3.1-3.1s1.4-3.1,3.1-3.1s3.1,1.4,3.1,3.1
	S61.1,18.8,59.4,18.8z"/>
</svg>
