<?xml version="1.0" encoding="utf-8"?>
<!-- Generator: Adobe Illustrator 24.0.1, SVG Export Plug-In . SVG Version: 6.00 Build 0)  -->
<svg version="1.1" id="Layer_1" xmlns="http://www.w3.org/2000/svg" xmlns:xlink="http://www.w3.org/1999/xlink" x="0px" y="0px"
	 viewBox="0 0 40 40" style="enable-background:new 0 0 40 40;" xml:space="preserve">
<path d="M34.2,5.8C30.4,2.1,25.4,0,20.1,0C9.1,0,0.2,8.9,0.2,19.8c0,3.5,0.9,6.9,2.7,9.9L0,40l10.6-2.8
	c2.9,1.6,6.2,2.4,9.5,2.4h0c11,0,19.9-8.9,19.9-19.8C40,14.5,37.9,9.6,34.2,5.8 M20.1,36.3L20.1,36.3c-3,0-5.9-0.8-8.4-2.3L11,33.7
	l-6.3,1.6l1.7-6.1l-0.4-0.6c-1.7-2.6-2.5-5.7-2.5-8.8c0-9.1,7.4-16.5,16.6-16.5c4.4,0,8.6,1.7,11.7,4.8s4.8,7.3,4.8,11.7
	C36.6,28.9,29.2,36.3,20.1,36.3 M29.2,24c-0.5-0.2-2.9-1.4-3.4-1.6c-0.5-0.2-0.8-0.2-1.1,0.2c-0.3,0.5-1.3,1.6-1.6,1.9
	c-0.3,0.3-0.6,0.4-1.1,0.1c-0.5-0.2-2.1-0.8-4-2.5c-1.5-1.3-2.5-2.9-2.8-3.4c-0.3-0.5,0-0.8,0.2-1c0.2-0.2,0.5-0.6,0.7-0.9
	c0.2-0.3,0.3-0.5,0.5-0.8c0.2-0.3,0.1-0.6,0-0.9s-1.1-2.7-1.5-3.7c-0.4-1-0.8-0.8-1.1-0.9c-0.3,0-0.6,0-1,0c-0.3,0-0.9,0.1-1.3,0.6
	C11.2,11.8,10,13,10,15.4s1.8,4.8,2,5.1c0.2,0.3,3.5,5.3,8.5,7.5c1.2,0.5,2.1,0.8,2.8,1c1.2,0.4,2.3,0.3,3.1,0.2
	c1-0.1,2.9-1.2,3.4-2.4c0.4-1.2,0.4-2.1,0.3-2.4C30,24.3,29.7,24.2,29.2,24"/>
</svg>
