<?xml version="1.0" encoding="utf-8"?>
<!-- Generator: Adobe Illustrator 24.0.1, SVG Export Plug-In . SVG Version: 6.00 Build 0)  -->
<svg version="1.1" id="Layer_1" xmlns="http://www.w3.org/2000/svg" xmlns:xlink="http://www.w3.org/1999/xlink" x="0px" y="0px"
	 viewBox="0 0 200 65" style="enable-background:new 0 0 200 65;" xml:space="preserve">
<g>
	<g>
		<path class="logo-1-color-1" d="M38.7,55.8c-4-3.9-6.1-9.4-6.1-15.3C32.7,28.6,43,19,55.7,19c4.6,0,8.9,1.3,12.5,3.5l11-12.5
			c-0.5-0.1-1-0.2-1.4-0.2c-1.7-0.2-2.6-0.2-3.3-0.2s-1.5,0.8-1.5,0.8s-0.3-0.5-1.1-1.3S70.9,7.3,70,5.4c-1-1.9-4-3.4-4.6-3.7
			c-0.6-0.3-1.2-0.3-1.2-0.3s0-0.4,0-0.9S63.7,0,63.7,0S49.9,0,49.8,0c-0.1,0-0.4,0-0.5,0.3c0,0.3-0.1,1-0.1,1
			c-1.3,0.1-3.7,1.4-4.8,2.4c-1.1,1-3.3,5.4-4.6,6.6c-1.3,1.2-4.7,1.8-6.6,2.2c-1.8,0.4-7.1,0.8-7.5,0.9c-0.4,0-6.1,0.5-6.2,0.4
			c-0.9-0.4-2.3-0.3-2.3-0.3c-1.6,0-5.3,0.8-6.4,1S8.1,15.3,7,15.8c-1.2,0.6-2.5,1.5-3.5,2.5c-1.1,1-2,3-2.2,3.8
			c-0.2,0.7-0.5,5-0.6,5.9c0,0.7-0.7,19.7-0.6,23.4c0.1,3.6,0.5,8.9,0.7,10.4c0.2,1.6,1.5,2.1,2.5,2.6c0.9,0.4,3,0.5,3,0.5
			S17.7,65,17.8,65s0.4,0,0.4,0c0.3-0.1,1.7-0.5,1.7-0.5s4.8,0,11.9,0L38.7,55.8z M13.6,18.9c-1.7,0.2-3.3-0.4-3.4-1.4
			s1.2-2,2.9-2.2c1.7-0.2,3.3,0.4,3.4,1.4C16.8,17.7,15.3,18.7,13.6,18.9z M21.4,60.4c0,0.3-0.3,0.6-0.6,0.6h-0.1
			c-0.3,0-0.6-0.3-0.6-0.6V28.1c0-0.3,0.3-0.6,0.6-0.6h0.1c0.3,0,0.6,0.3,0.6,0.6V60.4z"/>
		<path class="logo-1-color-2" d="M45.5,48.7c-1.7-2.1-2.8-4.8-2.8-7.7c0-6.9,6-12.5,13.4-12.5c2.2,0,4.2,0.5,6.1,1.4l4-4.5
			c-2.9-1.7-6.5-2.7-10.2-2.7c-10.8,0-19.6,8.2-19.6,18.3c0,4.7,1.9,9,5,12.2L45.5,48.7z"/>
	</g>
	<g class="logo-1-color-2">
		<path d="M74.8,40.7L71.5,30h-0.1c0.1,2.2,0.2,3.6,0.2,4.3v6.3H69V27.1h3.9l3.2,10.4h0.1l3.4-10.4h3.9v13.6h-2.7v-6.4
			c0-0.3,0-0.7,0-1.1S81,31.7,81,30h-0.1l-3.5,10.6h-2.5V40.7z"/>
		<path d="M96.1,40.7l-1-3.2h-5l-1,3.2h-3.1l4.8-13.6h3.5l4.8,13.6H96.1z M94.4,35.1c-0.9-2.9-1.4-4.6-1.5-5
			s-0.2-0.7-0.2-0.9c-0.2,0.8-0.8,2.8-1.8,5.9H94.4z"/>
		<path d="M106.8,40.7h-2.9V29.5h-3.7v-2.4h10.4v2.4h-3.7L106.8,40.7L106.8,40.7z"/>
		<path d="M117.5,32.7l2.8-5.6h3.1l-4.5,8.3v5.3H116v-5.2l-4.5-8.4h3.1L117.5,32.7z"/>
		<path d="M137,27.1v8.8c0,1-0.2,1.9-0.7,2.6c-0.4,0.8-1.1,1.3-1.9,1.7c-0.8,0.4-1.9,0.6-3,0.6c-1.7,0-3.1-0.4-4.1-1.3
			s-1.5-2.1-1.5-3.7V27h2.9v8.3c0,1,0.2,1.8,0.6,2.3c0.4,0.5,1.1,0.7,2.1,0.7c0.9,0,1.6-0.2,2-0.7c0.4-0.5,0.6-1.3,0.6-2.3V27h3
			V27.1z"/>
		<path d="M149,37c0,1.2-0.4,2.2-1.3,2.9c-0.9,0.7-2.1,1.1-3.7,1.1c-1.5,0-2.7-0.3-3.8-0.8v-2.7
			c0.9,0.4,1.7,0.7,2.3,0.9c0.6,0.2,1.2,0.3,1.7,0.3c0.6,0,1.1-0.1,1.5-0.4c0.3-0.2,0.5-0.6,0.5-1.1c0-0.3-0.1-0.5-0.2-0.7
			c-0.1-0.2-0.4-0.4-0.7-0.6s-0.9-0.5-1.8-0.9c-0.8-0.4-1.5-0.8-1.9-1.1c-0.4-0.4-0.7-0.8-1-1.3c-0.2-0.5-0.4-1-0.4-1.7
			c0-1.2,0.4-2.1,1.2-2.8c0.8-0.7,1.9-1,3.4-1c0.7,0,1.4,0.1,2,0.3c0.6,0.2,1.3,0.4,2,0.7l-0.9,2.2c-0.7-0.3-1.3-0.5-1.8-0.6
			s-0.9-0.2-1.4-0.2s-1,0.1-1.3,0.4c-0.3,0.3-0.4,0.6-0.4,1c0,0.3,0.1,0.5,0.2,0.7c0.1,0.2,0.3,0.4,0.6,0.5c0.3,0.2,0.9,0.5,1.8,1
			c1.3,0.6,2.1,1.2,2.6,1.8C148.7,35.3,149,36.1,149,37z"/>
		<path d="M163.3,40.7h-2.9v-5.8h-5.4v5.9H152V27.1h2.9v5.3h5.4v-5.3h2.9V40.7z"/>
		<path d="M178.3,40.7H175l-3.6-5.7l-1.2,0.9v4.9h-2.9V27.1h2.9v6.2l1.1-1.6l3.7-4.6h3.2l-4.7,6L178.3,40.7z"/>
		<path d="M180.6,40.7V27.1h2.9v13.6C183.6,40.7,180.6,40.7,180.6,40.7z"/>
		<path d="M199.7,40.7H196l-6-10.3h-0.1c0.1,1.8,0.2,3.1,0.2,3.9v6.4h-2.6V27.1h3.6l6,10.2h0.1c-0.1-1.8-0.1-3-0.1-3.7
			v-6.4h2.6V40.7z"/>
	</g>
	<g class="logo-1-color-1">
		<path d="M60.6,49.6c0,1-0.3,1.8-1,2.3s-1.6,0.8-2.9,0.8h-1.6V57h-0.7V46.7h2.5C59.4,46.6,60.6,47.6,60.6,49.6z
			 M55.2,52h1.4c1.2,0,2-0.2,2.5-0.6c0.5-0.4,0.8-1,0.8-1.9c0-0.8-0.2-1.4-0.7-1.8s-1.2-0.6-2.3-0.6h-1.7C55.2,47.1,55.2,52,55.2,52
			z"/>
		<path d="M70,52.4v4.5h-0.7V46.6h2.5c1.3,0,2.2,0.2,2.8,0.7s0.9,1.2,0.9,2.1c0,0.7-0.2,1.3-0.5,1.7s-0.9,0.8-1.7,1
			l2.8,4.7h-0.9l-2.7-4.5H70V52.4z M70,51.8h2c0.9,0,1.5-0.2,2-0.6c0.5-0.4,0.7-1,0.7-1.7c0-0.8-0.2-1.4-0.7-1.7
			c-0.5-0.4-1.2-0.5-2.3-0.5H70V51.8z"/>
		<path d="M93.1,51.7c0,1.6-0.4,2.9-1.2,3.9S90,57,88.5,57c-1.4,0-2.6-0.5-3.4-1.4c-0.8-0.9-1.2-2.2-1.2-3.9
			c0-1.6,0.4-2.9,1.2-3.9c0.8-0.9,1.9-1.4,3.4-1.4c1.4,0,2.6,0.5,3.4,1.4C92.7,48.8,93.1,50.1,93.1,51.7z M84.6,51.7
			c0,1.5,0.3,2.6,1,3.4s1.6,1.2,2.8,1.2c1.2,0,2.2-0.4,2.8-1.2c0.7-0.8,1-1.9,1-3.4s-0.3-2.6-1-3.4s-1.6-1.2-2.8-1.2
			c-1.2,0-2.2,0.4-2.8,1.2C84.9,49.1,84.6,50.3,84.6,51.7z"/>
		<path d="M109.7,51.6c0,1.7-0.5,3-1.4,3.9s-2.2,1.3-4,1.3h-2.5V46.5h2.8c1.6,0,2.9,0.4,3.8,1.3
			C109.3,48.7,109.7,50,109.7,51.6z M108.9,51.7c0-1.5-0.4-2.6-1.1-3.3c-0.7-0.7-1.8-1.1-3.3-1.1h-1.9v9h1.7
			C107.4,56.3,108.9,54.7,108.9,51.7z"/>
		<path d="M126.2,46.6v6.7c0,1.2-0.3,2.1-1,2.8c-0.7,0.7-1.6,1-2.9,1c-1.2,0-2.1-0.3-2.8-1s-1-1.6-1-2.8v-6.6h0.7v6.7
			c0,1,0.3,1.8,0.8,2.3s1.3,0.8,2.3,0.8c1,0,1.7-0.3,2.3-0.8c0.5-0.5,0.8-1.3,0.8-2.3v-6.7L126.2,46.6L126.2,46.6z"/>
		<path d="M139.9,47.1c-1.3,0-2.3,0.4-3,1.2c-0.7,0.8-1.1,2-1.1,3.4c0,1.5,0.4,2.6,1,3.4c0.7,0.8,1.7,1.2,3,1.2
			c0.9,0,1.7-0.1,2.4-0.3v0.6c-0.7,0.2-1.5,0.4-2.5,0.4c-1.4,0-2.6-0.5-3.4-1.4c-0.8-0.9-1.2-2.2-1.2-3.9c0-1,0.2-2,0.6-2.8
			c0.4-0.8,1-1.4,1.7-1.8s1.6-0.7,2.6-0.7c1,0,1.9,0.2,2.7,0.6l-0.3,0.6C141.5,47.3,140.7,47.1,139.9,47.1z"/>
		<path d="M153.5,56.9h-0.7v-9.6h-3.3v-0.7h7.5v0.7h-3.3v9.6H153.5z"/>
		<path d="M164.9,56.9V46.6h0.7v10.3H164.9z"/>
		<path d="M183.7,51.7c0,1.6-0.4,2.9-1.2,3.9S180.5,57,179,57c-1.4,0-2.6-0.5-3.4-1.4s-1.2-2.2-1.2-3.9
			c0-1.6,0.4-2.9,1.2-3.9c0.8-0.9,1.9-1.4,3.4-1.4c1.4,0,2.6,0.5,3.4,1.4C183.3,48.8,183.7,50.1,183.7,51.7z M175.2,51.7
			c0,1.5,0.3,2.6,1,3.4s1.6,1.2,2.8,1.2s2.2-0.4,2.8-1.2c0.7-0.8,1-1.9,1-3.4s-0.3-2.6-1-3.4s-1.6-1.2-2.8-1.2s-2.2,0.4-2.8,1.2
			C175.5,49.1,175.2,50.3,175.2,51.7z"/>
		<path d="M200,56.9h-0.7l-6.2-9.1H193c0.1,1.1,0.1,1.9,0.1,2.5V57h-0.7V46.7h0.7l6.2,9.1l0,0c0-0.8-0.1-1.6-0.1-2.4
			v-6.7h0.7v10.2H200z"/>
	</g>
</g>
</svg>
