<?xml version="1.0" encoding="utf-8"?>
<!-- Generator: Adobe Illustrator 24.0.1, SVG Export Plug-In . SVG Version: 6.00 Build 0)  -->
<svg version="1.1" id="Layer_1" xmlns="http://www.w3.org/2000/svg" xmlns:xlink="http://www.w3.org/1999/xlink" x="0px" y="0px"
	 viewBox="0 0 545 40" style="enable-background:new 0 0 545 40;" xml:space="preserve">
<g>
	<g>
		<path d="M22.2,34.3c-2.3-2.4-3.5-5.9-3.5-9.4c0-7.4,5.9-13.2,13.1-13.2c2.6,0,5.1,0.8,7.2,2.1l6.3-7.7
			c-0.3-0.1-0.6-0.1-0.8-0.1C43.5,6,43,6,42.6,6s-0.9,0.5-0.9,0.5S41.5,6.2,41,5.7s-0.5-1.1-1.1-2.3c-0.6-1.1-2.3-2.1-2.7-2.3
			c-0.3-0.2-0.7-0.2-0.7-0.2s0-0.2,0-0.5S36.3,0,36.3,0s-7.9,0-8,0S28,0,28,0.2s-0.1,0.6-0.1,0.6c-0.7,0.1-2.1,0.9-2.8,1.5
			c-0.6,0.6-1.9,3.3-2.7,4c-0.8,0.7-2.7,1.1-3.7,1.3c-1.1,0.2-4,0.5-4.2,0.5S11.1,8.5,11,8.4c-0.5-0.3-1.3-0.2-1.3-0.2
			c-0.9,0-3,0.5-3.6,0.6C5.5,8.9,4.5,9.3,3.8,9.6c-0.7,0.3-1.4,0.9-2,1.5c-0.6,0.6-1.1,1.9-1.2,2.3s-0.3,3.1-0.3,3.6
			S-0.1,29.3,0,31.5C0.1,33.7,0.3,37,0.4,38s0.9,1.3,1.4,1.6c0.5,0.3,1.8,0.3,1.8,0.3s6.5,0.1,6.6,0.1s0.2,0,0.2,0
			c0.2,0,1-0.3,1-0.3s2.8,0,6.8,0L22.2,34.3z M7.9,11.6c-1,0.1-1.9-0.2-2-0.9c-0.1-0.6,0.7-1.2,1.7-1.3c1-0.1,1.9,0.2,2,0.9
			C9.7,10.9,8.9,11.5,7.9,11.6z M12.3,37.2c0,0.2-0.2,0.4-0.4,0.4h-0.1c-0.2,0-0.4-0.2-0.4-0.4V17.3c0-0.2,0.2-0.4,0.4-0.4h0.1
			c0.2,0,0.4,0.2,0.4,0.4V37.2z"/>
		<path d="M26.1,30c-1-1.3-1.6-2.9-1.6-4.7c0-4.2,3.4-7.8,7.7-7.8c1.2,0,2.4,0.3,3.5,0.8l2.3-2.8
			c-1.7-1-3.7-1.6-5.8-1.6C26,13.8,21,18.9,21,25.2c0,2.9,1.1,5.6,2.9,7.6L26.1,30z"/>
	</g>
	<g>
		<path d="M61.9,33.7L57,17.5h-0.1c0.2,3.3,0.3,5.6,0.3,6.7v9.7h-3.9V13.1h5.9L64.1,29h0.1l5.2-15.9h5.9v20.7h-4.1V24
			c0-0.5,0-1,0-1.6c0-0.6,0.1-2.2,0.2-4.8h-0.1L66,33.8h-4.1V33.7z"/>
		<path d="M93.7,33.7l-1.5-4.9h-7.5l-1.5,4.9h-4.7l7.3-20.8h5.3l7.3,20.8H93.7z M91.2,25.2c-1.4-4.4-2.2-7-2.3-7.6
			s-0.3-1-0.4-1.4c-0.3,1.2-1.2,4.2-2.7,9H91.2z"/>
		<path d="M109.8,33.7h-4.4V16.7h-5.6V13h15.5v3.6h-5.6L109.8,33.7L109.8,33.7z"/>
		<path d="M125.8,21.6l4.3-8.6h4.7L128,25.8v8.1h-4.3v-8L116.9,13h4.7L125.8,21.6z"/>
		<path d="M154.9,13v13.4c0,1.5-0.3,2.8-1,4c-0.7,1.1-1.7,2-2.9,2.6c-1.3,0.6-2.8,0.9-4.6,0.9c-2.6,0-4.7-0.7-6.2-2
			c-1.5-1.4-2.2-3.2-2.2-5.7V13h4.3v12.7c0,1.6,0.3,2.7,1,3.5c0.6,0.7,1.7,1.1,3.2,1.1c1.4,0,2.5-0.4,3.1-1.1c0.6-0.7,1-1.9,1-3.5
			V13L154.9,13L154.9,13z"/>
		<path d="M173,28c0,1.9-0.7,3.3-2,4.4c-1.3,1.1-3.2,1.6-5.6,1.6c-2.2,0-4.1-0.4-5.8-1.2v-4c1.4,0.6,2.6,1.1,3.5,1.3
			c1,0.3,1.8,0.4,2.6,0.4c1,0,1.7-0.2,2.2-0.5c0.5-0.4,0.8-0.9,0.8-1.6c0-0.4-0.1-0.8-0.3-1.1c-0.2-0.3-0.6-0.6-1-0.9
			c-0.4-0.3-1.3-0.8-2.7-1.4c-1.3-0.6-2.2-1.2-2.8-1.7s-1.1-1.2-1.5-1.9c-0.4-0.7-0.6-1.6-0.6-2.5c0-1.8,0.6-3.2,1.8-4.3
			c1.2-1,2.9-1.6,5.1-1.6c1.1,0,2.1,0.1,3.1,0.4c1,0.3,2,0.6,3,1.1l-1.4,3.4c-1.1-0.5-2-0.8-2.7-0.9c-0.7-0.2-1.4-0.3-2.1-0.3
			c-0.8,0-1.5,0.2-1.9,0.6c-0.4,0.4-0.7,0.9-0.7,1.5c0,0.4,0.1,0.7,0.3,1s0.5,0.6,0.9,0.8c0.4,0.3,1.3,0.7,2.8,1.4
			c1.9,0.9,3.2,1.8,3.9,2.8C172.6,25.6,173,26.7,173,28z"/>
		<path d="M194.4,33.7h-4.3v-9H182v9h-4.4V13h4.4v8.2h8.1V13h4.3V33.7z"/>
		<path d="M217,33.7h-4.9l-5.4-8.8l-1.8,1.3v7.4h-4.4V12.9h4.4v9.5l1.7-2.4l5.6-7.1h4.8l-7.2,9.2L217,33.7z"/>
		<path d="M220.3,33.7V13h4.4v20.7H220.3z"/>
		<path d="M248.9,33.7h-5.5l-8.9-15.7h-0.1c0.2,2.7,0.3,4.7,0.3,6v9.8h-3.9V13.1h5.5l8.8,15.5h0.1
			c-0.1-2.7-0.2-4.6-0.2-5.8V13h3.9V33.7z"/>
	</g>
	<g>
		<path d="M274.5,19c0,2-0.7,3.5-2,4.6c-1.3,1.1-3.3,1.6-5.7,1.6h-3.2v8.6h-1.4V13.1h5C272.1,13,274.5,15.1,274.5,19z
			 M263.6,23.9h2.8c2.3,0,4-0.4,5-1.1c1-0.8,1.5-2,1.5-3.7c0-1.6-0.5-2.8-1.5-3.5s-2.5-1.1-4.5-1.1h-3.4L263.6,23.9L263.6,23.9z"/>
		<path d="M292.5,24.7v9.1h-1.4V13.1h4.9c2.5,0,4.4,0.5,5.7,1.4c1.2,0.9,1.8,2.4,1.8,4.3c0,1.4-0.4,2.5-1.1,3.5
			c-0.7,0.9-1.8,1.6-3.3,2l5.6,9.5H303l-5.3-9.1h-5.2V24.7z M292.5,23.5h3.9c1.7,0,3.1-0.4,4-1.2c1-0.8,1.4-1.9,1.4-3.4
			c0-1.6-0.5-2.7-1.4-3.4c-0.9-0.7-2.5-1.1-4.6-1.1h-3.4L292.5,23.5L292.5,23.5z"/>
		<path d="M337.6,23.3c0,3.3-0.8,5.9-2.4,7.8c-1.6,1.9-3.9,2.8-6.7,2.8c-2.9,0-5.1-0.9-6.7-2.8s-2.4-4.5-2.4-7.9
			s0.8-5.9,2.5-7.8c1.6-1.9,3.9-2.8,6.7-2.8c2.9,0,5.1,0.9,6.7,2.8C336.8,17.5,337.6,20.1,337.6,23.3z M320.8,23.3
			c0,2.9,0.7,5.3,2,6.9c1.3,1.6,3.2,2.4,5.7,2.4s4.4-0.8,5.7-2.4c1.3-1.6,2-3.9,2-6.9c0-3-0.7-5.3-2-6.9c-1.3-1.6-3.2-2.4-5.6-2.4
			c-2.4,0-4.3,0.8-5.7,2.4C321.4,18.1,320.8,20.4,320.8,23.3z"/>
		<path d="M369.9,23.2c0,3.4-0.9,6.2-2.7,7.9s-4.5,2.6-8,2.6h-4.9V13h5.6c3.3,0,5.8,0.9,7.5,2.6
			C369.1,17.4,369.9,19.9,369.9,23.2z M368.3,23.2c0-2.9-0.7-5.3-2.2-6.7c-1.5-1.5-3.7-2.2-6.6-2.2h-3.8v18.2h3.4
			C365.3,32.5,368.3,29.4,368.3,23.2z"/>
		<path d="M401.8,13v13.4c0,2.4-0.7,4.2-2.1,5.6c-1.4,1.3-3.3,2-5.7,2c-2.4,0-4.2-0.7-5.6-2c-1.3-1.3-2-3.2-2-5.7V13
			h1.4v13.4c0,2,0.5,3.5,1.6,4.6c1.1,1.1,2.6,1.7,4.7,1.7c2,0,3.5-0.5,4.6-1.6c1.1-1.1,1.6-2.6,1.6-4.5V13.1h1.5V13z"/>
		<path d="M428.3,14c-2.6,0-4.6,0.8-6.1,2.5c-1.5,1.7-2.2,3.9-2.2,6.9s0.7,5.3,2.1,6.9c1.4,1.6,3.4,2.4,6,2.4
			c1.7,0,3.3-0.2,4.8-0.7v1.3c-1.4,0.5-3.1,0.7-5.1,0.7c-2.9,0-5.2-0.9-6.8-2.8c-1.7-1.9-2.5-4.5-2.5-7.9c0-2.1,0.4-3.9,1.2-5.6
			s1.9-2.8,3.4-3.7c1.5-0.9,3.2-1.3,5.2-1.3s3.8,0.4,5.4,1.1l-0.6,1.3C431.5,14.4,429.9,14,428.3,14z"/>
		<path d="M454.8,33.7h-1.4V14.3h-6.7V13h14.8v1.3h-6.7L454.8,33.7L454.8,33.7z"/>
		<path d="M476.6,33.7V13h1.4v20.7H476.6z"/>
		<path d="M513.1,23.3c0,3.3-0.8,5.9-2.4,7.8c-1.6,1.9-3.9,2.8-6.7,2.8c-2.9,0-5.1-0.9-6.7-2.8s-2.4-4.5-2.4-7.9
			s0.8-5.9,2.5-7.8c1.6-1.9,3.9-2.8,6.7-2.8c2.9,0,5.1,0.9,6.7,2.8C512.3,17.5,513.1,20.1,513.1,23.3z M496.3,23.3
			c0,2.9,0.7,5.3,2,6.9c1.3,1.6,3.2,2.4,5.7,2.4c2.5,0,4.4-0.8,5.7-2.4c1.3-1.6,2-3.9,2-6.9c0-3-0.7-5.3-2-6.9
			c-1.3-1.6-3.2-2.4-5.6-2.4c-2.4,0-4.3,0.8-5.7,2.4C497,18.1,496.3,20.4,496.3,23.3z"/>
		<path d="M544.9,33.7h-1.4l-12.2-18.4h-0.1c0.1,2.2,0.2,3.8,0.2,4.9v13.4H530V13h1.4l12.2,18.4h0.1
			c-0.1-1.7-0.1-3.3-0.1-4.8V13h1.4L544.9,33.7L544.9,33.7z"/>
	</g>
</g>
</svg>
