<?xml version="1.0" encoding="utf-8"?>
<!-- Generator: Adobe Illustrator 24.0.1, SVG Export Plug-In . SVG Version: 6.00 Build 0)  -->
<svg version="1.1" id="Layer_1" xmlns="http://www.w3.org/2000/svg" xmlns:xlink="http://www.w3.org/1999/xlink" x="0px" y="0px"
	 viewBox="0 0 250 50" style="enable-background:new 0 0 250 50;" xml:space="preserve">
<g>
	<g>
		<path d="M28.5,43.2c-3-3-4.5-7.3-4.5-11.8c0-9.2,7.6-16.6,16.9-16.6c3.4,0,6.5,1,9.3,2.7l8.1-9.7c-0.4-0.1-0.8-0.2-1-0.2
			c-1.2-0.2-1.9-0.2-2.4-0.2S53.7,8,53.7,8s-0.3-0.4-0.8-1c-0.6-0.6-0.6-1.4-1.4-2.9c-0.7-1.5-3-2.7-3.4-2.9
			c-0.4-0.2-0.9-0.2-0.9-0.2s0-0.3,0-0.7S46.9,0,46.9,0S36.7,0,36.6,0c-0.1,0-0.3,0-0.4,0.2c0,0.2-0.1,0.8-0.1,0.8
			c-0.9,0.1-2.7,1.1-3.5,1.9c-0.8,0.8-2.4,4.2-3.4,5.1s-3.4,1.4-4.8,1.7c-1.4,0.3-5.2,0.7-5.4,0.7c-0.3,0-4.4,0.4-4.5,0.3
			c-0.7-0.3-1.7-0.2-1.7-0.2c-1.1,0-3.9,0.6-4.6,0.8c-0.7,0.2-2.1,0.6-2.9,1c-0.9,0.4-1.8,1.2-2.6,2C1.6,15,1,16.6,0.8,17.1
			c-0.2,0.6-0.4,3.8-0.4,4.5c0,0.6-0.5,15.2-0.4,17.9s0.4,6.8,0.5,8c0.1,1.2,1.1,1.6,1.8,2c0.7,0.3,2.2,0.4,2.2,0.4S12.9,50,13,50
			s0.3,0,0.3,0c0.2-0.1,1.2-0.4,1.2-0.4s3.5,0,8.8,0L28.5,43.2z M10.1,14.8c-1.3,0.2-2.4-0.3-2.5-1.1s0.9-1.5,2.1-1.7
			c1.3-0.2,2.4,0.3,2.5,1.1C12.3,13.8,11.4,14.6,10.1,14.8z M15.8,46.6c0,0.3-0.2,0.5-0.5,0.5h-0.1c-0.3,0-0.5-0.2-0.5-0.5V21.8
			c0-0.3,0.2-0.5,0.5-0.5h0.1c0.3,0,0.5,0.2,0.5,0.5V46.6z"/>
		<path d="M33.6,37.7c-1.3-1.7-2-3.6-2-5.9c0-5.3,4.4-9.7,9.9-9.7c1.6,0,3.1,0.4,4.4,1.1l2.9-3.5c-2.2-1.3-4.7-2.1-7.5-2.1
			c-8,0-14.4,6.3-14.4,14.1c0,3.6,1.4,6.9,3.7,9.5L33.6,37.7z"/>
	</g>
	<g>
		<path d="M73.2,26.5l-4.6-14.9h-0.1c0.2,3.1,0.2,5,0.2,6v8.8H65V7.5h5.5L75.1,22h0.1L80,7.5h5.5v18.9h-3.7v-9c0-0.4,0-0.9,0-1.5
			s0.1-2,0.2-4.4h-0.1l-5,14.8h-3.7V26.5z"/>
		<path d="M103.2,26.5l-1.4-4.5h-7.1l-1.4,4.5h-4.4l6.9-19h5l6.9,19H103.2z M100.9,18.6c-1.3-4-2-6.4-2.2-6.9
			c-0.2-0.5-0.3-1-0.3-1.3c-0.3,1.1-1.1,3.8-2.5,8.2H100.9z"/>
		<path d="M118.3,26.5h-4.1V10.9H109V7.6h14.6v3.4h-5.2v15.6H118.3z"/>
		<path d="M133.4,15.4l4-7.8h4.4l-6.4,11.5v7.4h-4v-7.2L125,7.6h4.4L133.4,15.4z"/>
		<path d="M160.8,7.6v12.2c0,1.4-0.3,2.7-1,3.6s-1.6,1.9-2.8,2.5c-1.2,0.6-2.6,0.9-4.3,0.9c-2.5,0-4.4-0.6-5.8-1.9
			c-1.4-1.3-2-3-2-5.1V7.6h4.1v11.6c0,1.5,0.3,2.6,0.9,3.3c0.6,0.7,1.6,1,3,1c1.3,0,2.3-0.3,2.9-1s0.9-1.8,0.9-3.3V7.7L160.8,7.6
			L160.8,7.6z"/>
		<path d="M177.9,21.2c0,1.7-0.6,3.1-1.9,4c-1.2,1-3,1.5-5.2,1.5c-2,0-3.9-0.4-5.4-1.2v-3.7c1.3,0.6,2.4,1,3.3,1.2
			c0.9,0.2,1.7,0.4,2.5,0.4c0.9,0,1.6-0.2,2.1-0.5c0.5-0.3,0.7-0.8,0.7-1.5c0-0.4-0.1-0.7-0.3-1s-0.5-0.6-0.9-0.8
			c-0.4-0.3-1.2-0.7-2.5-1.3c-1.2-0.6-2.1-1.1-2.6-1.6c-0.6-0.5-1.1-1.1-1.4-1.8c-0.4-0.7-0.5-1.5-0.5-2.4c0-1.7,0.6-3,1.7-3.9
			c1.2-1,2.7-1.5,4.8-1.5c1,0,2,0.1,2.9,0.4c0.9,0.3,1.9,0.6,2.8,1l-1.3,3.2c-1-0.4-1.9-0.7-2.5-0.9c-0.7-0.2-1.3-0.2-2-0.2
			c-0.8,0-1.4,0.2-1.8,0.5c-0.4,0.4-0.6,0.8-0.6,1.4c0,0.4,0.1,0.7,0.2,0.9c0.2,0.3,0.4,0.5,0.8,0.8c0.4,0.3,1.2,0.7,2.6,1.3
			c1.8,0.9,3,1.7,3.7,2.6C177.5,18.9,177.9,20,177.9,21.2z"/>
		<path d="M198,26.5h-4.1v-8.2h-7.7v8.2h-4.1V7.6h4.1V15h7.7V7.6h4.1V26.5z"/>
		<path d="M219.3,26.5h-4.6l-5-8l-1.7,1.2v6.8h-4.1V7.6h4.1v8.7l1.6-2.3l5.2-6.4h4.5l-6.8,8.4L219.3,26.5z"/>
		<path d="M222.5,26.5V7.6h4.1v18.9H222.5z"/>
		<path d="M249.5,26.5h-5.2l-8.5-14.3h-0.1c0.2,2.6,0.2,4.3,0.2,5.4v8.9h-3.6V7.6h5.1l8.4,14.2h0.1c-0.1-2.5-0.2-4.2-0.2-5.2v-9h3.7
			v18.9H249.5z"/>
	</g>
	<g>
		<path d="M51.4,39.2c0,1.4-0.5,2.5-1.4,3.3c-1,0.8-2.3,1.1-4.1,1.1h-2.3v6h-1V35h3.6C49.7,35,51.4,36.4,51.4,39.2z M43.5,42.7h2
			c1.7,0,2.8-0.3,3.6-0.8c0.7-0.5,1.1-1.4,1.1-2.7c0-1.1-0.3-2-1-2.5c-0.7-0.5-1.8-0.8-3.2-0.8h-2.5V42.7z"/>
		<path d="M64.8,43.2v6.3h-1V35h3.5c1.8,0,3.2,0.3,4,1c0.9,0.7,1.3,1.7,1.3,3c0,1-0.3,1.8-0.8,2.5c-0.5,0.7-1.3,1.2-2.4,1.5l4,6.6
			h-1.2l-3.8-6.3H64.8z M64.8,42.3h2.8c1.2,0,2.2-0.3,2.9-0.8c0.7-0.6,1-1.4,1-2.4c0-1.1-0.3-1.9-1-2.4c-0.7-0.5-1.8-0.8-3.3-0.8
			h-2.4V42.3z"/>
		<path d="M97.7,42.2c0,2.3-0.6,4.1-1.7,5.4c-1.1,1.3-2.8,2-4.8,2c-2,0-3.6-0.7-4.8-2c-1.2-1.4-1.7-3.2-1.7-5.4
			c0-2.3,0.6-4.1,1.8-5.4s2.8-2,4.8-2c2,0,3.7,0.7,4.8,2C97,38.2,97.7,39.9,97.7,42.2z M85.6,42.2c0,2.1,0.5,3.6,1.4,4.8
			s2.3,1.7,4,1.7c1.8,0,3.1-0.6,4.1-1.7c1-1.1,1.4-2.8,1.4-4.8c0-2.1-0.5-3.6-1.4-4.8c-0.9-1.2-2.3-1.7-4-1.7c-1.7,0-3.1,0.6-4,1.7
			C86.2,38.5,85.6,40.1,85.6,42.2z"/>
		<path d="M121.4,42.1c0,2.5-0.6,4.2-1.9,5.5c-1.3,1.3-3.2,1.9-5.7,1.9h-3.5V35h4c2.3,0,4.1,0.6,5.3,1.8
			C120.8,38.1,121.4,39.8,121.4,42.1z M120.3,42.2c0-2.1-0.5-3.6-1.6-4.6c-1.1-1.1-2.6-1.6-4.7-1.6h-2.7v12.7h2.4
			C118.1,48.6,120.3,46.4,120.3,42.2z"/>
		<path d="M144.8,35v9.4c0,1.7-0.5,3-1.5,3.9c-1,1-2.3,1.4-4.1,1.4c-1.7,0-3-0.5-4-1.4c-1-0.9-1.4-2.3-1.4-3.9V35h1v9.4
			c0,1.4,0.4,2.5,1.2,3.3c0.8,0.8,1.9,1.2,3.3,1.2c1.4,0,2.5-0.4,3.3-1.2c0.8-0.8,1.2-1.8,1.2-3.2V35H144.8z"/>
		<path d="M164.3,35.7c-1.8,0-3.3,0.6-4.3,1.8c-1.1,1.2-1.6,2.8-1.6,4.7c0,2.1,0.5,3.6,1.5,4.8c1,1.2,2.4,1.7,4.3,1.7
			c1.2,0,2.4-0.2,3.4-0.5v0.9c-1,0.3-2.2,0.5-3.6,0.5c-2.1,0-3.7-0.7-4.9-2c-1.2-1.3-1.8-3.2-1.8-5.5c0-1.5,0.3-2.8,0.8-3.8
			c0.6-1.1,1.4-2,2.4-2.6c1.1-0.6,2.3-0.9,3.7-0.9c1.4,0,2.7,0.3,3.8,0.8l-0.4,0.9C166.6,36,165.5,35.7,164.3,35.7z"/>
		<path d="M183.8,49.5h-1V36H178v-1h10.7v1h-4.8V49.5z"/>
		<path d="M199.9,49.5V35h1v14.5H199.9z"/>
		<path d="M226.7,42.2c0,2.3-0.6,4.1-1.7,5.4c-1.1,1.3-2.8,2-4.8,2c-2,0-3.6-0.7-4.8-2c-1.2-1.3-1.7-3.2-1.7-5.4
			c0-2.3,0.6-4.1,1.8-5.4c1.2-1.3,2.8-2,4.8-2s3.7,0.7,4.8,2C226.1,38.2,226.7,39.9,226.7,42.2z M214.6,42.2c0,2.1,0.5,3.6,1.4,4.8
			c0.9,1.2,2.3,1.7,4,1.7c1.8,0,3.1-0.6,4.1-1.7c0.9-1.1,1.4-2.8,1.4-4.8c0-2.1-0.5-3.6-1.4-4.8c-0.9-1.1-2.3-1.7-4-1.7
			c-1.7,0-3.1,0.6-4,1.7C215,38.6,214.6,40.1,214.6,42.2z"/>
		<path d="M250,49.5h-1l-8.8-12.8h-0.1c0.1,1.6,0.1,2.7,0.1,3.5v9.4h-1V35h1l8.8,12.8h0.1c-0.1-1.2-0.1-2.4-0.1-3.4V35h1V49.5z"/>
	</g>
</g>
</svg>
