<?xml version="1.0" encoding="utf-8"?>
<!-- Generator: Adobe Illustrator 24.0.1, SVG Export Plug-In . SVG Version: 6.00 Build 0)  -->
<svg version="1.1" xmlns="http://www.w3.org/2000/svg" xmlns:xlink="http://www.w3.org/1999/xlink" x="0px" y="0px"
	 viewBox="0 0 512 512" style="enable-background:new 0 0 512 512;" xml:space="preserve">
<path d="M376.3,468c0,11-8.9,20-20,20H79.8C35.8,488,0,452.1,0,408V178c0-16.9,5.2-33,15-46.7c6.4-9,18.9-11,27.9-4.6
	c8.9,6.5,11,19,4.5,27.9c-4.9,6.8-7.5,14.9-7.5,23.3v230c0,22.1,17.9,40,39.9,40h276.5C367.3,448,376.3,457,376.3,468z M156.6,245.3
	c-10.9-1.9-21.2,5.4-23.1,16.3c-1.2,7-1.8,14.2-1.8,21.4c0,68.9,56,125,124.8,125c8.2,0,16.4-0.8,24.3-2.4
	c10.8-2.1,17.8-12.7,15.7-23.5c-2.1-10.8-12.6-17.9-23.5-15.7c-5.4,1.1-11,1.6-16.6,1.6c-46.8,0-84.8-38.1-84.8-85
	c0-4.9,0.4-9.8,1.2-14.6C174.8,257.5,167.5,247.2,156.6,245.3z M506.2,506.1c-3.9,3.9-9,5.9-14.1,5.9s-10.2-2-14.1-5.9L6.8,34.1
	C-1,26.3-1,13.7,6.8,5.9C14.6-2,27.3-2,35.1,5.9l87.4,87.5c2.7-2.3,4.8-5.2,6-8.6l6.9-19.2c8.5-23.7,31.2-39.6,56.3-39.6h127.5
	c25.6,0,48.4,16.3,56.7,40.7l6,17.8c2.8,8.1,10.3,13.6,18.9,13.6h30.3c44,0,79.8,35.9,79.8,80v130c0,11-8.9,20-20,20
	c-11,0-20-9-20-20V178c0-22.1-17.9-40-39.9-40h-30.3c-25.6,0-48.4-16.3-56.7-40.7l-6-17.8c-2.8-8.1-10.3-13.6-18.9-13.6H191.7
	c-8.4,0-15.9,5.3-18.8,13.2L166,98.4c-3.2,9-8.5,16.9-15.3,23.3l49.6,49.7c17.4-8.8,36.6-13.4,56.2-13.4
	c68.8,0,124.8,56.1,124.8,125c0,19.7-4.6,38.9-13.4,56.3l94,94.2c5.9-7.1,9.2-16,9.2-25.5c0-11,8.9-20,20-20c11,0,20,9,20,20
	c0,20.4-7.5,39.4-20.8,53.9l15.9,16C513.9,485.7,513.9,498.3,506.2,506.1z M230.8,202l106.6,106.8c2.6-8.3,4-16.9,4-25.7
	c0-46.9-38.1-85-84.8-85C247.7,198,239.1,199.4,230.8,202z"/>
</svg>
