<?xml version="1.0" encoding="utf-8"?>
<!-- Generator: Adobe Illustrator 24.0.1, SVG Export Plug-In . SVG Version: 6.00 Build 0)  -->
<svg version="1.1" id="Слой_1" xmlns="http://www.w3.org/2000/svg" xmlns:xlink="http://www.w3.org/1999/xlink" x="0px" y="0px"
	 viewBox="0 0 163.2 50" style="enable-background:new 0 0 163.2 50;" xml:space="preserve">
<style type="text/css">
	.st0{fill:#4F4F4F;}
	.st1{fill:none;stroke:#FFD757;stroke-width:2;stroke-miterlimit:10;}
</style>
<title>Монтажная область 1</title>
<path class="st0" d="M11.3,35.5c-1.4,0-2.8-0.2-4.2-0.8c-1.2-0.5-2.3-1.2-3.2-2.1c-0.9-1-1.6-2.1-2.1-3.3C1.3,27.9,1,26.4,1,24.9
	c0-1.5,0.2-3,0.7-4.3c0.5-1.2,1.2-2.4,2.1-3.3c0.9-0.9,2-1.6,3.2-2.1c1.3-0.5,2.7-0.7,4.1-0.7c1.1,0,2.2,0.1,3.3,0.4
	c1,0.3,1.9,0.7,2.7,1.2c0.8,0.5,1.5,1.1,2,1.9c0.5,0.7,0.9,1.5,1.1,2.4h-1.7c-0.1-0.6-0.4-1.2-0.8-1.7c-0.4-0.6-1-1-1.6-1.4
	c-0.7-0.4-1.5-0.7-2.3-0.9c-0.9-0.2-1.9-0.4-2.8-0.4c-1.2,0-2.3,0.2-3.4,0.6c-1,0.4-1.9,1-2.7,1.7c-0.8,0.8-1.4,1.8-1.8,2.8
	c-0.4,1.2-0.7,2.5-0.6,3.9c0,1.3,0.2,2.6,0.6,3.9c0.4,1.1,1,2,1.8,2.9c0.8,0.8,1.7,1.4,2.7,1.8c1.1,0.4,2.3,0.6,3.5,0.6
	c1.6,0,3.2-0.3,4.6-1c1.3-0.6,2.4-1.5,3.3-2.7v-3.6h-5.9v-1.5h7.5v9.9h-0.9l-0.7-2.7c-0.5,0.6-1,1-1.6,1.4c-0.6,0.4-1.2,0.7-1.9,0.9
	c-0.7,0.2-1.4,0.4-2.1,0.5C12.8,35.5,12,35.5,11.3,35.5z"/>
<path class="st0" d="M38.5,35.2H25.9V14.8h1.6v18.8h11.1V35.2z"/>
<path class="st0" d="M59.7,35.2h-1.9l-2.6-6.5H44.6c-0.4,1-0.8,2.1-1.2,3.3c-0.5,1.1-0.9,2.2-1.3,3.3h-1.7c0.7-1.8,1.4-3.5,2.1-5.2
	l2-5c0.7-1.7,1.4-3.3,2-5s1.4-3.4,2.1-5.1h2.2L59.7,35.2z M54.7,27.5l-5-11.3L45,27.5H54.7z"/>
<path class="st0" d="M76.9,35.5c-1.3,0-2.6-0.1-3.8-0.4c-1-0.2-1.9-0.7-2.7-1.2c-0.7-0.5-1.3-1.2-1.7-2c-0.4-0.8-0.6-1.6-0.7-2.5
	h1.6c0.1,0.8,0.4,1.6,0.9,2.3c0.4,0.6,0.9,1.1,1.6,1.5c0.7,0.4,1.4,0.6,2.2,0.8c0.9,0.2,1.7,0.2,2.6,0.2c0.9,0,1.7-0.1,2.6-0.3
	c0.7-0.2,1.4-0.4,2-0.8c0.5-0.3,0.9-0.8,1.3-1.3c0.3-0.5,0.4-1.1,0.4-1.7c0-0.6-0.1-1.2-0.4-1.7c-0.3-0.5-0.7-0.9-1.3-1.2
	c-0.7-0.4-1.5-0.7-2.4-0.9c-1-0.3-2.2-0.5-3.6-0.8c-1-0.2-2-0.5-3-0.9c-0.7-0.3-1.4-0.6-2.1-1.1c-0.5-0.4-0.9-0.9-1.2-1.5
	c-0.3-0.6-0.4-1.3-0.4-1.9c0-0.8,0.2-1.5,0.5-2.2c0.4-0.6,0.9-1.2,1.5-1.6c0.7-0.5,1.5-0.9,2.3-1.1c1-0.3,2-0.4,3-0.4
	c1,0,2,0.1,3,0.4c0.9,0.2,1.7,0.6,2.4,1.1c0.7,0.4,1.2,1,1.7,1.7c0.4,0.7,0.7,1.4,0.8,2.2h-1.5c-0.1-0.5-0.4-1.1-0.7-1.5
	c-0.3-0.5-0.8-0.9-1.3-1.3c-0.6-0.4-1.2-0.6-1.8-0.8C77.9,16,77.1,16,76.3,16c-1.5-0.1-3,0.2-4.3,1c-0.9,0.6-1.5,1.6-1.5,2.7
	c0,0.5,0.1,1,0.3,1.4c0.2,0.4,0.5,0.8,0.9,1.1c0.5,0.4,1.1,0.6,1.7,0.8c0.9,0.3,1.8,0.5,2.7,0.7l1.9,0.4c0.7,0.1,1.3,0.3,1.9,0.5
	c0.6,0.2,1.2,0.4,1.8,0.7c0.5,0.3,1.1,0.6,1.5,1c0.4,0.4,0.8,0.9,1,1.4c0.3,0.6,0.4,1.3,0.4,2c0,0.8-0.2,1.6-0.6,2.3
	c-0.4,0.7-0.9,1.4-1.6,1.9c-0.7,0.5-1.6,1-2.5,1.2C79,35.4,78,35.5,76.9,35.5z"/>
<path class="st0" d="M97.2,35.5c-1.3,0-2.6-0.1-3.8-0.4c-1-0.2-1.9-0.7-2.7-1.2c-0.7-0.5-1.3-1.2-1.7-2c-0.4-0.8-0.6-1.7-0.7-2.6
	h1.6c0.1,0.8,0.4,1.6,0.9,2.3c0.4,0.6,1,1.1,1.6,1.4c0.7,0.4,1.4,0.6,2.2,0.8c0.9,0.2,1.7,0.2,2.6,0.2c0.9,0,1.7-0.1,2.6-0.3
	c0.7-0.2,1.4-0.4,2-0.8c0.5-0.3,0.9-0.8,1.2-1.3c0.3-0.5,0.4-1.1,0.4-1.7c0-0.6-0.1-1.2-0.4-1.7c-0.3-0.5-0.7-0.9-1.3-1.2
	c-0.7-0.4-1.5-0.7-2.4-0.9c-1-0.3-2.2-0.5-3.6-0.8c-1-0.2-2-0.5-3-0.9c-0.7-0.3-1.5-0.6-2.1-1.1c-0.5-0.4-0.9-0.9-1.2-1.5
	c-0.6-1.3-0.5-2.8,0.1-4.1c0.4-0.6,0.9-1.2,1.5-1.6c0.7-0.5,1.5-0.9,2.3-1.1c1-0.3,2-0.4,3-0.4c1,0,2,0.1,3,0.4
	c0.9,0.2,1.7,0.6,2.4,1.1c0.7,0.4,1.2,1,1.7,1.7c0.4,0.7,0.7,1.4,0.8,2.2h-1.5c-0.3-1.1-1-2.1-2-2.7c-0.6-0.4-1.2-0.6-1.8-0.8
	c-0.8-0.2-1.6-0.3-2.4-0.3c-1.5-0.1-3,0.2-4.4,1c-0.9,0.6-1.5,1.6-1.5,2.7c0,0.5,0.1,0.9,0.3,1.4c0.2,0.4,0.5,0.8,0.9,1.1
	c0.5,0.4,1.1,0.6,1.7,0.8c0.9,0.3,1.8,0.5,2.7,0.7l1.9,0.4c0.7,0.1,1.3,0.3,2,0.5c0.6,0.2,1.2,0.4,1.8,0.7c0.5,0.3,1.1,0.6,1.5,1
	c0.9,0.9,1.5,2.1,1.4,3.4c0,0.8-0.2,1.6-0.6,2.4c-0.4,0.7-0.9,1.4-1.6,1.9c-0.7,0.6-1.6,1-2.4,1.2C99.3,35.4,98.3,35.5,97.2,35.5z"
	/>
<path class="st0" d="M117.9,35.2h-1.6V14.8h1.6V35.2z"/>
<path class="st0" d="M139.6,35.2h-15.5V14.8h15v1.5h-13.4v7.5h12.6v1.5h-12.6v8.3h13.9V35.2z"/>
<path class="st0" d="M161.6,35.2h-1.7l-2.1-5.4c-0.2-0.5-0.4-1-0.7-1.5c-0.2-0.4-0.5-0.8-0.9-1.2c-0.3-0.3-0.7-0.6-1.2-0.8
	c-0.5-0.2-1-0.3-1.5-0.3H146v9.2h-1.6V14.8h9.6c0.9,0,1.7,0.1,2.6,0.2c0.8,0.1,1.6,0.4,2.3,0.8c0.7,0.4,1.2,1,1.6,1.6
	c0.4,0.8,0.6,1.8,0.6,2.7c0,0.6-0.1,1.3-0.3,1.9c-0.2,0.6-0.4,1.1-0.8,1.6c-0.4,0.5-0.8,0.9-1.4,1.2c-0.6,0.3-1.3,0.6-1.9,0.7
	c0.4,0.3,0.7,0.5,1,0.9c0.3,0.3,0.5,0.6,0.7,0.9c0.2,0.3,0.4,0.7,0.5,1l0.5,1.3L161.6,35.2z M146,24.5h7.4c0.9,0,1.8-0.1,2.7-0.2
	c0.7-0.1,1.3-0.4,1.9-0.7c0.5-0.3,0.9-0.8,1.1-1.3c0.3-0.6,0.4-1.3,0.4-2c0.1-1.2-0.4-2.3-1.4-3c-1.3-0.7-2.7-1-4.2-0.9H146V24.5z"
	/>
<path class="st1" d="M69.3,8.7h33.8c3.5,0,6.3,2.8,6.3,6.3v20c0,3.5-2.8,6.3-6.3,6.3H69.3c-3.5,0-6.3-2.8-6.3-6.3V15
	C63,11.5,65.9,8.7,69.3,8.7z"/>
</svg>
