<?xml version="1.0" encoding="UTF-8"?> <!-- Generator: Adobe Illustrator 21.0.0, SVG Export Plug-In . SVG Version: 6.00 Build 0) --> <svg xmlns="http://www.w3.org/2000/svg" xmlns:xlink="http://www.w3.org/1999/xlink" version="1.1" id="Layer_1" x="0px" y="0px" viewBox="0 0 158 65" style="enable-background:new 0 0 158 65;" xml:space="preserve"> <style type="text/css"> .st0{fill:none;stroke:#000000;stroke-width:2.5;stroke-linecap:round;stroke-miterlimit:10;} .st1{fill:none;stroke:#000000;stroke-width:2.5;stroke-miterlimit:10;} .st2{fill:#D13354;} </style> <g id="eni-logo_copy_xA0_Image_1_"> </g> <g id="Vector_Smart_Object_copy_5_xA0_Image_1_"> <g id="Layer_2"> <path class="st0" d="M152.3,45.1h-4.6V21.5c0-0.4,0.2-0.8,0.6-1l3-1.4c0.3-0.2,0.7-0.1,0.9,0.2c0.1,0.1,0.1,0.2,0.1,0.4V45.1z"></path> <circle cx="150" cy="9.6" r="3"></circle> <path class="st1" d="M121.2,45.9V24.1c0,0,9.8-8.4,16.2-3.7c1.9,1.5,3,3.7,2.9,6.1v19.4"></path> <path class="st1" d="M124.9,45.9V26.7c0,0,5.8-5.3,9.8-2.4c1.2,0.9,1.9,2.4,1.9,3.9v17.7"></path> <path class="st1" d="M114.4,41.9c0,0-13.6,1.6-14.3-9.2h10.4c0.9,0,1.7-0.2,2.5-0.6c1.5-0.7,2.4-2.2,2.5-3.8 c0.2-2.5-0.9-5-2.8-6.5s-4.4-2.2-6.8-1.9c0,0-7.4,0.7-9.1,8.3c-1.7,7.7,3.1,18.1,18,16.8"></path> <path class="st1" d="M100.2,29.4h9.7c0,0,3-0.6,1.6-4c0,0-2.2-4-7.3-1.9C104.2,23.5,99.9,25.8,100.2,29.4z"></path> </g> </g> <g id="Layer_4"> <g> <path class="st2" d="M18.7,11.3c0,0,1.7-1.7,5.1-2.4c0,0,0.6-0.1,0.2-0.6s-0.7-0.7-0.8-1.2c0,0,1.6,0.1,4.9-1.4c0,0,3.2-1.6,7.4,0 c0,0,1,0.9,6,1.3c0,0,0.2-0.1-0.2,0.7c0,0-0.4,0.6,1.2,0.6c1.7-0.1,3.4-0.4,3.4-0.4s1.9-0.7,3.3-0.6c0,0,2.1,0.1,2.5,1.6 c0,0-1.7,0.1-2.5,1.2s-2.6,2.7-5.5,3.4c-2.8,0.8-6.6-0.3-6.6-0.3S37,14,37.2,14.4c0,0-1.9-0.6-3.2-0.1s-6.5,1.6-10.3-1.3 C23.7,13.2,19.8,13.3,18.7,11.3z"></path> <path d="M23.4,5.1c0-0.2-0.1-0.4-0.1-0.6c-0.2-1-0.7-3.3-0.9-3.9c-0.2-0.5-0.7-0.4-1-0.2c-0.2,0.1-0.4,0.2-0.7,0.3 C19,1.4,12.5,4,12,4.2c-0.5,0.1-0.9,0-0.9,0L5.6,0l0.8,6.4c-2.3,0-3,2-3,2C1.6,11.8,0,12.1,0,12.1c0.7,1.2,2.2,1.5,2.7,1.6 C3,13.7,3,13.9,2.9,14c0,0.1-0.1,0.2-0.1,0.2c-0.5,1-0.5,1.4-0.6,3.7c0,2.4-1.5,3.4-1.5,3.4c0.9,0.3,2.5,0,3.1-0.7 s0.8-0.2,0.4,0.3c-0.3,0.5-0.8,3.2-0.7,4.3c0.2,1.1-0.3,2.1-0.3,2.1c1.9-0.4,3-1.6,4.1-4.2c0.8-1.9,0.7-1,0.5-0.3 c-0.1,0.5-0.2,1.1-0.2,1.6c-0.1,2.7,1.2,2.3,1.2,2.3c0.6-1.9,1.7-3.8,2.3-4s1.7,0.4,2.8,0.8c1,0.4,1,0.3,1,0.3s0.4-1.4-0.5-3.3 s0.3-0.4,0.5-0.1c0.3,0.4,2,1.9,3.6,1.3c1.5-0.6,1.6-1.2,1.6-1.3l0,0c-1.7,0.1-2.8-1.3-3.1-2.4c-0.3-0.9-1.1-2.5-1.4-2.9 c0-0.1-0.1-0.2-0.1-0.3c-0.1-0.4,0.3,0,0.3,0c1.5,1.6,1.5,1.6,2,1.7s3,0.5,3.6,0.7s0.7,0.1,0.8-0.1c0.1-0.2,0.2-1,0.3-1.4 c0-0.2,0-0.3,0-0.5c0-0.8-0.1-0.8-0.3-0.8c-0.2,0-0.2,0.2-0.5,0.4c-0.2,0.2-0.6,0.1-0.6,0.1c-1.9-0.4-2.6-0.8-2.8-0.9l0,0 l-1.9-3.8c0-0.1-0.1-0.2-0.1-0.3c0-0.3,0.2-0.4,0.2-0.4S18.9,8,19,8.1c0.2,0.1,0.7,0.7,0.8,0.9h0.1c0.3-0.1,0.4-0.9,0.5-1.2 c0-0.1,0.1-0.3,0.1-0.4C20.8,7,21,7.6,21.1,7.9c0.1,0.3,0.2,0.3,0.2,0.3C21.9,8.3,22,7.6,22,7.6s-0.1-1.2,0.9-1.2 C23.6,6.3,23.5,5.4,23.4,5.1z M13.6,8.5c-0.7,0-1.2-0.6-1.2-1.2S12.9,6,13.6,6s1.2,0.6,1.2,1.2S14.3,8.5,13.6,8.5z"></path> <path d="M81,53.6c-0.1-0.1-2.8-2.1-3.3-4.1c-0.2-0.6,0-1.3,0.4-1.8c0.4-0.4,1-1.2,1.2-1.4c0,0-1.8,0.2-1.6-0.9 c0-0.2,0.1-0.3,0.3-0.4c0.4-0.3,1.2-0.9,1.3-1.4c0,0-2.8,0-2.3-0.9c0-0.1,0.1-0.1,0.1-0.2c0.4-0.3,1.9-1.5,1.7-2.3 c0,0-2.7,1-2.7-0.4c0-0.1,0-0.2,0.1-0.3s0.1-0.4,0.3-0.6c0,0-3,0.1-4.6-3.3c-1.7-3.4-3.6-10.3-6.6-12c-0.1,0-0.1-0.1-0.2-0.1 c-0.2-0.2-0.4-0.5,0.1-0.9c0.7-0.6,2.6-2.4,2.7-5.7s-4.4-8.6-10.1-6.3c0,0-2.8,1-4.8,6c-0.3,0.8-0.5,1.6-0.7,2.4 c-0.2,1-0.8,2.8-2.1,4.2c-0.3,0.3-0.7,0.6-1.2,0.7c-0.7,0.2-1.3,0-1.8-0.6c0,0-0.8-0.9-0.6-1.9c0,0,0.7,1.1,1.7,1.2 c0.6,0,0.9-0.3,1.1-0.7c0.2-0.4,0.3-0.8,0.2-1.2c-0.1-0.7-0.6-1.9-2.3-2.1c-1.3-0.1-2.3,0.5-2.8,1.3c-0.7,1-0.7,2.2-0.3,3.3 c0.1,0.5,0.4,1,0.7,1.6c0.1,0.2,0.2,0.4,0.4,0.5c0.1,0.1,0.3,0.4,0,0.7c-0.5,0.5-1.2,0.5-1.5,0.3s-1-1-1.1-1.4 c0,0-0.5,0.3-0.5,2.1c0,1.8-1.7-0.6-1.7-0.6S40,26,39.9,25.2c0,0-0.8,0.5-0.8,2c0,0.2,0,0.4-0.1,0.6c-0.2,0.4-0.6,0.9-1.4-0.3 c0,0-0.5-0.7-0.6-2.5c0,0-0.6-0.4-1.7,2.5c-0.1,0.1-0.1,0.3-0.2,0.4c-0.2,0.3-0.7,0.8-1.2-0.3c-0.6-1.6-0.4-3-0.4-3 s-0.9,0.2-2.2,2.8c-0.1,0.1-0.1,0.2-0.1,0.3c-0.1,0.2-0.4,0.7-0.7-0.2c-0.4-1.2-0.3-3.7-0.3-3.7s-0.7,0.4-2.8,3.1 c-0.2,0.2-0.3,0.4-0.6,0.5c-0.3,0.2-0.7,0.3-0.8-0.1c0-0.1,0-0.2,0.1-0.3c0.2-0.4,0.9-1.8-0.1-4.2c0,0-2,2.5-3.1,3.2 c-0.1,0.1-0.3,0.1-0.4,0.2c-0.3,0.2-0.9,0.5-0.7-0.2c0-0.1,0.1-0.2,0.1-0.3c0.2-0.5,1.1-2.7,0.5-4.9c0,0-2.3,3.4-6,1.7 c0,0,0,1.8-1.1,2.8l-2.9-1.2c-0.1,0-0.2-0.1-0.3-0.1c-0.3,0-0.7,0-0.9,0.5c-0.3,0.7-1.5,3.3-1.6,4.1c0,0-2.1,0-3-2.3 c0,0-1.9,4.2,0.8,13.1S12,55,12,57.1c0,2-0.3,2.6-4.1,7.4c-0.1,0.1-0.2,0.3-0.3,0.4c-0.1,0.1-0.2,0.4,1,0.3c1.5,0,3.5,0,3.5,0 s1,0.1,1.4-1.5s0.6-6.4,4.3-8.2c0,0-1.3-0.9-0.3-1.6c0.9-0.8,1.4-1.3,1.5-1.7c0,0-2-0.9-1.2-1.6c0.9-0.8,1.3-0.8,1.7-1.5 c0,0-3.6-1.2-1.6-2.3c2-1,1.7-1.6,1.7-1.6s-3,0.5-3-1.8v-1.7c0,0,0.1-0.2,1.1,0.3c0.6,0.3,1.3,0.5,2,0.7c0.3,0.1,0.7,0.1,1.1,0.2 c0.1,0,0.1,0.1,0.1,0.1c0,0.5-0.1,2.7,0.4,4.3c0.6,1.7,1.2,2.1,1,4.1c0,0.4-0.2,0.9-0.5,1.2c-0.4,0.5-1.1,1.1-2.4,1.9 c0,0-0.9,0.5,0,1c0.7,0.4,2,1.7,2.5,2.1c0.1,0.1,0.2,0.2,0.3,0.3c0.2,0.2,0.6,0.6,0.8-0.3c0.3-1.1,1.3-3.5,1.3-3.5s0.3-0.9,1.4-1 s1.4-1.4,1.4-1.4s-2.1,0.2-1.7-0.6c0.1-0.2,0.3-0.3,0.5-0.4c0.5-0.1,1.7-0.4,2.2-1c0.7-0.8,0.6-0.9,0.6-0.9s-2.8,0.6-2.3-0.6 c0.1-0.2,0.2-0.3,0.3-0.4c0.2-0.2,0.6-0.5,1.3-0.5c1.1-0.1,1.8-1.4,1.8-1.4s-2.7,0.5-2.9-0.9c0-0.2,0-0.4,0.1-0.6 c0.1-0.4,0.5-1.2,0.8-1.4c0,0,3.7,0.3,5.1-0.2c0,0,2.4-0.8,2.2,0.4s-1.7,5.9-1.8,7.1c-0.1,1-0.8,1.5-1.1,1.7 c-0.1,0.1-0.3,0.2-0.4,0.2c-0.7,0.4-2.4,1.6-2.9,1.8c-0.6,0.3-0.6,1-0.1,1.3c0.4,0.2,2.2,1.8,2.8,2.2c0.1,0.1,0.2,0.2,0.3,0.3 c0.2,0.2,0.5,0.4,0.9-0.2c0.3-0.6,0.8-1.6,1.1-2.1s0.4-1,0.5-1.6v-0.1c0.1-0.6,1.2-0.9,1.6-1c0.2,0,0.4-0.1,0.6-0.2 c0.2-0.1,0.5-0.2,0.7-0.4c0,0-2-0.9-0.6-1.2s1.9-0.1,2.6-1c0,0-1.7-0.2-1.5-0.8c0,0,0-0.4,2.1-0.6c0,0,0.8,0,1.3-0.8 c0,0-2-0.2-1.5-0.9c0,0,0.1-0.3,1.2-0.7c0.2-0.1,0.4-0.1,0.7-0.2c0.3-0.1,0.8-0.3,1.2-1.1c0,0-2.6,0.1-2-1 c0.4-0.9,1.7-1.1,2.1-1.1c0.1,0,0.1,0,0.2,0.1c0.1,0.2,0.4,0.7,1.1,2.1c0.7,1.6,2.1,3.4,2.7,4.1c0.1,0.1,0.2,0.3,0.3,0.4 c0.2,0.2,0.7,0.9,0.1,1.3c-0.6,0.5-2.6,3-3.2,3.8c-0.1,0.1-0.2,0.2-0.3,0.4c-0.2,0.2-0.4,0.6,0.1,0.7l5.3-0.1c0,0,0.8,0.1,0.8-0.9 c0.1-1-0.5-3.3,0.2-4s1.6-2.1,1.6-2.1s-1.3,0.1-1.2-0.3c0,0,0-0.1,0.1-0.1c0.3-0.2,1.4-0.9,1.7-1.8c0,0-1.9,0.2-1.5-0.5 c0-0.1,0.1-0.1,0.1-0.1c0.3-0.2,1.4-0.8,1.5-1.7c0,0-2.6,0.5-2.5-0.9c0-0.1,0.1-0.3,0.1-0.4c0.3-0.4,1.2-1.8,1.6-2.1 c0,0,0.8-0.8,0.9,0.2s0.5,2.6,1.4,3.4c0.9,0.8,2.7,1.5,4.3,4.5c0,0,0.7,1.1-0.3,2.3c-0.8,0.9-2,3-2.4,3.7 c-0.1,0.1-0.1,0.2-0.2,0.4c-0.1,0.2-0.4,0.7,0.5,0.6c1.1-0.1,4.6-1.1,4.6-1.1s0.6-0.2,0.5-0.6c-0.1-0.5-0.2-3.2-0.2-3.2 s-0.1-0.5,0.5-0.8c0.1-0.1,0.3-0.1,0.4-0.2c0.3-0.2,0.9-0.6,0.9-0.8c0,0-1.2-0.4-0.7-1c0,0,1.4-0.8,1.5-1.6c0,0-1.7,0.7-1.7,0 c0-0.1,0-0.1,0.1-0.2c0.3-0.2,1.6-1.2,1.6-2c0,0-3.9,0.8-4-1.6c-0.1-2.4,0-2.3,0-2.3s-0.1-0.1,1,0.5c2.5,1.3,6,2.5,9,2.9 c0.2,0,0.3,0,0.5,0.1c0.4,0,1.4,0.2,1.7,0.8c0.3,0.6,3.7,6.5,5,8.4c0.1,0.1,0.2,0.3,0.3,0.4c0.2,0.2,0.5,0.8-0.1,1.5 c-0.6,0.8-2.6,3.1-3.1,3.7c-0.1,0.1-0.2,0.2-0.2,0.3c-0.2,0.2-0.6,0.7,0.4,0.6c1-0.1,4-0.6,4.7-0.7c0.1,0,0.2,0,0.2,0 c0.2,0,0.6-0.1,0.6-0.6C78.9,57.7,78.8,54.5,81,53.6L81,53.6z M63.4,20.2c-1.1,1-2.7,1.3-4.1,0.9c-1-0.3-1.5-0.9-1.5-0.9 c-3.6,5.2-6.6,4.9-6.6,4.9s2.8-4.5,4.1-7.3c0.7-1.4,1.4-2.4,1.9-3c0.6-0.8,1.5-1.3,2.5-1.5c0.5-0.1,1-0.1,1.4,0 c1.5,0.3,2.7,1.4,3.2,2.9C64.9,18.2,64.3,19.4,63.4,20.2z"></path> </g> </g> </svg> 