<?xml version="1.0" encoding="UTF-8"?> <!-- Generator: Adobe Illustrator 23.0.6, SVG Export Plug-In . SVG Version: 6.00 Build 0) --> <svg xmlns="http://www.w3.org/2000/svg" xmlns:xlink="http://www.w3.org/1999/xlink" version="1.1" id="Layer_1" x="0px" y="0px" viewBox="0 0 108.6 61.1" style="enable-background:new 0 0 108.6 61.1;" xml:space="preserve"> <style type="text/css"> .st0{fill:#EA5439;} </style> <path d="M96.8,33.4c-1.1,1.3-2.5,2.2-4,2.9c1.4,1.8,1.1,4.4-0.7,5.9c-0.7,0.6-1.7,0.9-2.6,0.9h-6.3v-8.4h5.5c4.5-0.2,8-3.9,7.9-8.5 c-0.2-4.3-3.6-7.7-7.9-7.9H78.4v5.9c-2.8-3.7-7.2-5.9-11.8-5.9h-7.5c1.6,1.3,2.7,3,3.3,4.9h4.2c4.2,0,7.9,2.7,9.3,6.6h-8.5v4.9h8.9 c-0.8,4.8-4.9,8.3-9.8,8.3h-5.4c0.1-0.1,0.1-0.2,0.2-0.4c1.7-3.9,0.6-8.4-2.8-11c2.9-3.5,2.3-8.6-1.1-11.5c-1.5-1.2-3.3-1.8-5.2-1.8 H42v11.8c1.3-1.4,3-2.4,4.9-2.7v-4.3h5.5c1.8-0.1,3.3,1.3,3.4,3.1c0.1,1.8-1.3,3.3-3.1,3.4c-0.1,0-0.2,0-0.4,0h-3.8 c-3.6,0-6.6,3-6.6,6.6l0,0v11.4c0,0.1,0.1,0.2,0.2,0.2h24.5c4.7,0,9-2.2,11.8-5.9v5.9h11.1c5,0,9.1-4.1,9.1-9.1 C98.7,36.9,98,34.9,96.8,33.4z M46.8,42.8v-8.2h6.3c2.3,0,4.2,1.9,4.2,4.3c0,0.8-0.3,1.6-0.7,2.3c-0.7,1.1-1.9,1.8-3.2,1.8H47 C46.9,43,46.8,42.9,46.8,42.8L46.8,42.8z M83.3,23.2h5.5c1.8-0.1,3.3,1.3,3.4,3.1c0.1,1.8-1.3,3.3-3.1,3.4c-0.1,0-0.2,0-0.4,0h-5.5 L83.3,23.2L83.3,23.2z"></path> <rect x="19.5" y="16.6" class="st0" width="2.1" height="2"></rect> <rect x="23.7" y="16.6" class="st0" width="2.1" height="2"></rect> <path class="st0" d="M37,23.4l-3.8-7.9V8.1c0-0.7-0.4-1.3-1-1.5c-0.6-0.3-1.4-0.1-1.8,0.4l-2.2,2.5l-1.5-2.3 c-0.5-0.7-1.6-0.9-2.3-0.4C24.3,6.9,24.1,7,24,7.2l-1.4,2l-1.4-2c-0.2-0.4-0.7-0.7-1.3-0.7l0,0c-0.6,0-1.1,0.3-1.4,0.8l-1.3,2.2 L14.8,7c-0.6-0.6-1.7-0.6-2.3,0C12.2,7.3,12,7.7,12,8.1v9.6l-2.9,5.9C9,23.8,9,24,9,24.2v26.5c0,1,0.8,1.8,1.7,1.8l0,0h17.9 c0.2,0,0.4-0.1,0.5-0.1c0.2-0.1,0.3-0.2,0.5-0.3h0.1V52l2.3-2.8l2.3,2.8c0.5,0.5,1.2,0.6,1.8,0.3c0.6-0.2,1-0.8,1-1.5V24.2 C37.3,24,37.2,23.7,37,23.4z M34,46.9l-0.7-1.1c-0.6-0.6-1.6-0.6-2.3,0l0,0l-2.9,3.5H12.3V24.5l3-6.1v-0.1v0.3h2.2v-2h-2.2v-4.5 l1.2,1.1c0.3,0.4,0.8,0.5,1.4,0.5c0.4,0,0.8-0.3,1.1-0.7l1-1.8l1.3,1.9c0.5,0.7,1.5,0.9,2.3,0.4c0.2-0.1,0.3-0.3,0.4-0.4l1.4-2 l1.4,2c0.2,0.4,0.6,0.6,1.1,0.7c0.5,0,1-0.2,1.3-0.5l0.8-0.9v4.3h-2.1v2h1.7l-2.3,4.8c-0.1,0.2-0.2,0.5-0.2,0.8v22.6 c0,0.1,0.1,0.1,0.2,0.1h0.1l2.9-3.4c0.1-0.1,0.1-0.2,0.1-0.4V24.6l1.9-4.2l1.9,4.2L34,46.9z"></path> </svg> 