<?xml version="1.0" encoding="utf-8"?>
<!-- Generator: Adobe Illustrator 24.0.1, SVG Export Plug-In . SVG Version: 6.00 Build 0)  -->
<svg version="1.1" id="Layer_1" xmlns="http://www.w3.org/2000/svg" xmlns:xlink="http://www.w3.org/1999/xlink" x="0px" y="0px"
	 viewBox="0 0 75 75" style="enable-background:new 0 0 75 75;" xml:space="preserve">
<path d="M27.5,31.1c1.1-0.8,2.2-1.1,3.4-1.1c2.5,0,4.9,1.6,5.7,4.2c-1-0.8-2.2-1.2-3.4-1.2c-1.2,0-2.4,0.4-3.5,1.1
	c-2.1,1.5-3,4.1-2.2,6.5C24.2,38.4,24.2,33.5,27.5,31.1z M37.4,64.8C40,65.7,48.1,68,57.5,75L75,62.6c-4.5-6.3-3.3-10.8-7.8-17.1
	c-2.3-3.2-3.8-4-5.8-4c-0.7,0-1.4,0.1-2.3,0.3l1.6,2.2c0.7,1-0.2,2-1,2c-0.3,0-0.7-0.2-1-0.5l-1.4-2c-0.5-0.7-1.1-0.9-1.9-0.9
	c-1.1,0-2.4,0.5-3.6,0.7l1.9,2.7c0.7,1-0.2,2-1,2c-0.3,0-0.7-0.2-1-0.5L50.2,45c-0.5-0.7-1.1-0.9-1.8-0.9c-1.1,0-2.5,0.5-3.7,0.8
	l2,2.8c0.7,1-0.2,2-1,2c-0.3,0-0.7-0.2-1-0.5l-8.2-11.5c-0.7-1-1.7-1.4-2.6-1.4c-2.4,0-4.8,2.7-2.9,5.4L43,58.7
	c-1.3-0.5-3.6-0.9-5.1-0.9C33.3,57.8,31.5,62.9,37.4,64.8z M31.6,53.5L29.1,50h-12c-6,0-10.9-4.9-10.9-10.9c0-8.7,7.7-12,13.9-11.6
	C19.6,14.3,27,6.2,37.5,6.2c10.8,0,18.4,8.7,17.4,21.2c5.2-0.1,13.1,2.1,13.8,10.4c1.5,1.2,2.7,2.6,3.6,4c0.7,1,1.3,1.9,1.8,2.8
	c0.6-1.7,0.9-3.6,0.9-5.6c0-8.4-6.1-15.5-14.1-16.9C60.2,9.8,50,0,37.5,0S14.8,9.8,14.1,22.2C6.1,23.6,0,30.6,0,39.1
	c0,9.5,7.7,17.2,17.2,17.2h11.7C29.6,55.2,30.5,54.2,31.6,53.5z"/>
</svg>
