<?xml version="1.0" encoding="utf-8"?>
<!-- Generator: Adobe Illustrator 24.2.1, SVG Export Plug-In . SVG Version: 6.00 Build 0)  -->
<svg version="1.1" id="Layer_1" xmlns="http://www.w3.org/2000/svg" xmlns:xlink="http://www.w3.org/1999/xlink" x="0px" y="0px"
	 width="34px" height="34px" viewBox="0 0 34 34" style="enable-background:new 0 0 34 34;" xml:space="preserve">
<path d="M33.1,3.3c-0.4-0.3-0.8-0.3-1.3-0.2L4.2,14.4c-0.2,0.1-0.3,0.2-0.4,0.4c-0.1,0.2-0.1,0.3,0,0.6
	c0.2,0.3,0.5,0.5,0.9,0.4L30.6,5.1L17.9,20.3c-0.2,0.3-0.2,0.7,0.1,1c0.3,0.2,0.7,0.2,1-0.1L31.8,5.8l-1.7,8.5l-1.8,12.2
	c0,0.1-0.1,0.2-0.2,0.3c-0.1,0.1-0.2,0.1-0.3,0l-7.4-3l-3.5-1.5c-0.2-0.1-0.3-0.1-0.5,0c-0.2,0.1-0.3,0.2-0.4,0.4l-1.7,6.5l-2.4-8.4
	l13.2-10c0.2-0.2,0.3-0.4,0.3-0.7c0-0.3-0.2-0.5-0.4-0.6c-0.2-0.1-0.5-0.1-0.7,0.1L11,19.7l-9.5-3.9c-0.3-0.2-0.8,0.1-0.9,0.4
	c-0.2,0.3,0,0.8,0.4,0.9l9.6,3.9l2.5,9.1c0.2,0.6,0.7,0.9,1.2,0.9c0.3,0,0.6-0.1,0.8-0.3c0,0,0.1-0.1,0.1-0.1l5.2-5.4l7,2.8
	c0.5,0.2,1,0.2,1.5-0.1c0.5-0.3,0.8-0.8,0.9-1.3l1.8-12.2l2-10C33.6,4,33.4,3.6,33.1,3.3z M19,24.7l-2.9,3.1l1-3.8l1.6,0.7L19,24.7z
	"/>
</svg>
